<svg width="361" height="70" viewBox="0 0 361 70" fill="none" xmlns="http://www.w3.org/2000/svg">
<path d="M76.4305 34L87.5065 9.15H93.1865L104.298 34H98.263L89.175 12.061H91.447L82.3235 34H76.4305ZM81.9685 28.675L83.495 24.3085H96.275L97.837 28.675H81.9685ZM115.294 41.171C113.495 41.171 111.756 40.9462 110.075 40.4965C108.419 40.0705 107.034 39.4197 105.922 38.544L108.123 34.568C108.928 35.2307 109.945 35.7513 111.176 36.13C112.43 36.5323 113.661 36.7335 114.868 36.7335C116.832 36.7335 118.252 36.2957 119.128 35.42C120.027 34.5443 120.477 33.2427 120.477 31.515V28.6395L120.832 23.847L120.761 19.019V14.901H126.015V30.805C126.015 34.355 125.092 36.9702 123.246 38.6505C121.4 40.3308 118.749 41.171 115.294 41.171ZM114.442 33.077C112.667 33.077 111.058 32.6983 109.614 31.941C108.194 31.16 107.046 30.0832 106.17 28.7105C105.318 27.3142 104.892 25.693 104.892 23.847C104.892 21.9773 105.318 20.3562 106.17 18.9835C107.046 17.5872 108.194 16.5103 109.614 15.753C111.058 14.9957 112.667 14.617 114.442 14.617C116.051 14.617 117.471 14.9483 118.702 15.611C119.933 16.25 120.891 17.2558 121.577 18.6285C122.264 19.9775 122.607 21.717 122.607 23.847C122.607 25.9533 122.264 27.6928 121.577 29.0655C120.891 30.4145 119.933 31.4203 118.702 32.083C117.471 32.7457 116.051 33.077 114.442 33.077ZM115.542 28.533C116.513 28.533 117.377 28.3437 118.134 27.965C118.891 27.5627 119.483 27.0065 119.909 26.2965C120.335 25.5865 120.548 24.77 120.548 23.847C120.548 22.9003 120.335 22.0838 119.909 21.3975C119.483 20.6875 118.891 20.1432 118.134 19.7645C117.377 19.3622 116.513 19.161 115.542 19.161C114.572 19.161 113.708 19.3622 112.951 19.7645C112.194 20.1432 111.59 20.6875 111.14 21.3975C110.714 22.0838 110.501 22.9003 110.501 23.847C110.501 24.77 110.714 25.5865 111.14 26.2965C111.59 27.0065 112.194 27.5627 112.951 27.965C113.708 28.3437 114.572 28.533 115.542 28.533ZM131.169 34V14.901H136.707V34H131.169ZM133.938 12.2385C132.921 12.2385 132.092 11.9427 131.453 11.351C130.814 10.7593 130.495 10.0257 130.495 9.15C130.495 8.27433 130.814 7.54067 131.453 6.949C132.092 6.35733 132.921 6.0615 133.938 6.0615C134.956 6.0615 135.784 6.3455 136.423 6.9135C137.062 7.45783 137.382 8.16783 137.382 9.0435C137.382 9.9665 137.062 10.7357 136.423 11.351C135.808 11.9427 134.98 12.2385 133.938 12.2385ZM141.847 34V7.659H147.385V34H141.847ZM152.525 34V14.901H158.063V34H152.525ZM155.294 12.2385C154.276 12.2385 153.448 11.9427 152.809 11.351C152.17 10.7593 151.85 10.0257 151.85 9.15C151.85 8.27433 152.17 7.54067 152.809 6.949C153.448 6.35733 154.276 6.0615 155.294 6.0615C156.311 6.0615 157.14 6.3455 157.779 6.9135C158.418 7.45783 158.737 8.16783 158.737 9.0435C158.737 9.9665 158.418 10.7357 157.779 11.351C157.163 11.9427 156.335 12.2385 155.294 12.2385ZM161.889 34V30.663L173.178 17.315L174.136 19.161H162.137V14.901H178.609V18.238L167.32 31.586L166.326 29.74H178.929V34H161.889ZM194.193 34V30.2725L193.838 29.456V22.782C193.838 21.5987 193.471 20.6757 192.737 20.013C192.027 19.3503 190.927 19.019 189.436 19.019C188.418 19.019 187.412 19.1847 186.418 19.516C185.448 19.8237 184.62 20.2497 183.933 20.794L181.945 16.9245C182.987 16.1908 184.241 15.6228 185.708 15.2205C187.176 14.8182 188.667 14.617 190.181 14.617C193.092 14.617 195.353 15.3033 196.962 16.676C198.571 18.0487 199.376 20.1905 199.376 23.1015V34H194.193ZM188.371 34.284C186.88 34.284 185.602 34.0355 184.537 33.5385C183.472 33.0178 182.655 32.3197 182.087 31.444C181.519 30.5683 181.235 29.5862 181.235 28.4975C181.235 27.3615 181.508 26.3675 182.052 25.5155C182.62 24.6635 183.507 24.0008 184.714 23.5275C185.921 23.0305 187.495 22.782 189.436 22.782H194.512V26.0125H190.039C188.738 26.0125 187.838 26.2255 187.341 26.6515C186.868 27.0775 186.631 27.61 186.631 28.249C186.631 28.959 186.904 29.527 187.448 29.953C188.016 30.3553 188.785 30.5565 189.755 30.5565C190.678 30.5565 191.507 30.3435 192.24 29.9175C192.974 29.4678 193.507 28.817 193.838 27.965L194.69 30.521C194.288 31.7517 193.554 32.6865 192.489 33.3255C191.424 33.9645 190.051 34.284 188.371 34.284ZM206.483 34.284C205.536 34.284 204.719 33.9645 204.033 33.3255C203.37 32.6628 203.039 31.8227 203.039 30.805C203.039 29.7873 203.37 28.9708 204.033 28.3555C204.719 27.7165 205.536 27.397 206.483 27.397C207.453 27.397 208.269 27.7165 208.932 28.3555C209.595 28.9708 209.926 29.7873 209.926 30.805C209.926 31.8227 209.595 32.6628 208.932 33.3255C208.269 33.9645 207.453 34.284 206.483 34.284ZM225.741 34V30.2725L225.386 29.456V22.782C225.386 21.5987 225.019 20.6757 224.285 20.013C223.575 19.3503 222.475 19.019 220.984 19.019C219.966 19.019 218.96 19.1847 217.966 19.516C216.996 19.8237 216.168 20.2497 215.481 20.794L213.493 16.9245C214.535 16.1908 215.789 15.6228 217.256 15.2205C218.724 14.8182 220.215 14.617 221.729 14.617C224.64 14.617 226.9 15.3033 228.51 16.676C230.119 18.0487 230.924 20.1905 230.924 23.1015V34H225.741ZM219.919 34.284C218.428 34.284 217.15 34.0355 216.085 33.5385C215.02 33.0178 214.203 32.3197 213.635 31.444C213.067 30.5683 212.783 29.5862 212.783 28.4975C212.783 27.3615 213.055 26.3675 213.6 25.5155C214.168 24.6635 215.055 24.0008 216.262 23.5275C217.469 23.0305 219.043 22.782 220.984 22.782H226.06V26.0125H221.587C220.286 26.0125 219.386 26.2255 218.889 26.6515C218.416 27.0775 218.179 27.61 218.179 28.249C218.179 28.959 218.451 29.527 218.996 29.953C219.564 30.3553 220.333 30.5565 221.303 30.5565C222.226 30.5565 223.055 30.3435 223.788 29.9175C224.522 29.4678 225.054 28.817 225.386 27.965L226.238 30.521C225.835 31.7517 225.102 32.6865 224.037 33.3255C222.972 33.9645 221.599 34.284 219.919 34.284ZM247.225 34.284C245.616 34.284 244.207 33.929 243 33.219C241.793 32.509 240.847 31.4322 240.16 29.9885C239.498 28.5212 239.166 26.6752 239.166 24.4505C239.166 22.2022 239.486 20.3562 240.125 18.9125C240.764 17.4688 241.687 16.392 242.894 15.682C244.101 14.972 245.545 14.617 247.225 14.617C249.024 14.617 250.633 15.0312 252.053 15.8595C253.497 16.6642 254.633 17.8002 255.461 19.2675C256.313 20.7348 256.739 22.4625 256.739 24.4505C256.739 26.4622 256.313 28.2017 255.461 29.669C254.633 31.1363 253.497 32.2723 252.053 33.077C250.633 33.8817 249.024 34.284 247.225 34.284ZM235.936 40.887V14.901H241.225V18.806L241.119 24.486L241.474 30.1305V40.887H235.936ZM246.266 29.74C247.189 29.74 248.006 29.527 248.716 29.101C249.45 28.675 250.029 28.0715 250.455 27.2905C250.905 26.4858 251.13 25.5392 251.13 24.4505C251.13 23.3382 250.905 22.3915 250.455 21.6105C250.029 20.8295 249.45 20.226 248.716 19.8C248.006 19.374 247.189 19.161 246.266 19.161C245.343 19.161 244.515 19.374 243.781 19.8C243.048 20.226 242.468 20.8295 242.042 21.6105C241.616 22.3915 241.403 23.3382 241.403 24.4505C241.403 25.5392 241.616 26.4858 242.042 27.2905C242.468 28.0715 243.048 28.675 243.781 29.101C244.515 29.527 245.343 29.74 246.266 29.74ZM271.735 34.284C270.126 34.284 268.718 33.929 267.511 33.219C266.304 32.509 265.357 31.4322 264.671 29.9885C264.008 28.5212 263.677 26.6752 263.677 24.4505C263.677 22.2022 263.996 20.3562 264.635 18.9125C265.274 17.4688 266.197 16.392 267.404 15.682C268.611 14.972 270.055 14.617 271.735 14.617C273.534 14.617 275.143 15.0312 276.563 15.8595C278.007 16.6642 279.143 17.8002 279.971 19.2675C280.823 20.7348 281.249 22.4625 281.249 24.4505C281.249 26.4622 280.823 28.2017 279.971 29.669C279.143 31.1363 278.007 32.2723 276.563 33.077C275.143 33.8817 273.534 34.284 271.735 34.284ZM260.446 40.887V14.901H265.736V18.806L265.629 24.486L265.984 30.1305V40.887H260.446ZM270.777 29.74C271.7 29.74 272.516 29.527 273.226 29.101C273.96 28.675 274.54 28.0715 274.966 27.2905C275.415 26.4858 275.64 25.5392 275.64 24.4505C275.64 23.3382 275.415 22.3915 274.966 21.6105C274.54 20.8295 273.96 20.226 273.226 19.8C272.516 19.374 271.7 19.161 270.777 19.161C269.854 19.161 269.025 19.374 268.292 19.8C267.558 20.226 266.978 20.8295 266.552 21.6105C266.126 22.3915 265.913 23.3382 265.913 24.4505C265.913 25.5392 266.126 26.4858 266.552 27.2905C266.978 28.0715 267.558 28.675 268.292 29.101C269.025 29.527 269.854 29.74 270.777 29.74Z" fill="#A644CB"/>
<path d="M27.995 65.5V55H32.54C33.48 55 34.29 55.155 34.97 55.465C35.65 55.765 36.175 56.2 36.545 56.77C36.915 57.34 37.1 58.02 37.1 58.81C37.1 59.59 36.915 60.265 36.545 60.835C36.175 61.405 35.65 61.845 34.97 62.155C34.29 62.455 33.48 62.605 32.54 62.605H29.345L30.425 61.51V65.5H27.995ZM30.425 61.78L29.345 60.625H32.405C33.155 60.625 33.715 60.465 34.085 60.145C34.455 59.825 34.64 59.38 34.64 58.81C34.64 58.23 34.455 57.78 34.085 57.46C33.715 57.14 33.155 56.98 32.405 56.98H29.345L30.425 55.825V61.78ZM44.0466 65.5V63.925L43.8966 63.58V60.76C43.8966 60.26 43.7416 59.87 43.4316 59.59C43.1316 59.31 42.6666 59.17 42.0366 59.17C41.6066 59.17 41.1816 59.24 40.7616 59.38C40.3516 59.51 40.0016 59.69 39.7116 59.92L38.8716 58.285C39.3116 57.975 39.8416 57.735 40.4616 57.565C41.0816 57.395 41.7116 57.31 42.3516 57.31C43.5816 57.31 44.5366 57.6 45.2166 58.18C45.8966 58.76 46.2366 59.665 46.2366 60.895V65.5H44.0466ZM41.5866 65.62C40.9566 65.62 40.4166 65.515 39.9666 65.305C39.5166 65.085 39.1716 64.79 38.9316 64.42C38.6916 64.05 38.5716 63.635 38.5716 63.175C38.5716 62.695 38.6866 62.275 38.9166 61.915C39.1566 61.555 39.5316 61.275 40.0416 61.075C40.5516 60.865 41.2166 60.76 42.0366 60.76H44.1816V62.125H42.2916C41.7416 62.125 41.3616 62.215 41.1516 62.395C40.9516 62.575 40.8516 62.8 40.8516 63.07C40.8516 63.37 40.9666 63.61 41.1966 63.79C41.4366 63.96 41.7616 64.045 42.1716 64.045C42.5616 64.045 42.9116 63.955 43.2216 63.775C43.5316 63.585 43.7566 63.31 43.8966 62.95L44.2566 64.03C44.0866 64.55 43.7766 64.945 43.3266 65.215C42.8766 65.485 42.2966 65.62 41.5866 65.62ZM52.708 68.53C51.948 68.53 51.213 68.435 50.503 68.245C49.803 68.065 49.218 67.79 48.748 67.42L49.678 65.74C50.018 66.02 50.448 66.24 50.968 66.4C51.498 66.57 52.018 66.655 52.528 66.655C53.358 66.655 53.958 66.47 54.328 66.1C54.708 65.73 54.898 65.18 54.898 64.45V63.235L55.048 61.21L55.018 59.17V57.43H57.238V64.15C57.238 65.65 56.848 66.755 56.068 67.465C55.288 68.175 54.168 68.53 52.708 68.53ZM52.348 65.11C51.598 65.11 50.918 64.95 50.308 64.63C49.708 64.3 49.223 63.845 48.853 63.265C48.493 62.675 48.313 61.99 48.313 61.21C48.313 60.42 48.493 59.735 48.853 59.155C49.223 58.565 49.708 58.11 50.308 57.79C50.918 57.47 51.598 57.31 52.348 57.31C53.028 57.31 53.628 57.45 54.148 57.73C54.668 58 55.073 58.425 55.363 59.005C55.653 59.575 55.798 60.31 55.798 61.21C55.798 62.1 55.653 62.835 55.363 63.415C55.073 63.985 54.668 64.41 54.148 64.69C53.628 64.97 53.028 65.11 52.348 65.11ZM52.813 63.19C53.223 63.19 53.588 63.11 53.908 62.95C54.228 62.78 54.478 62.545 54.658 62.245C54.838 61.945 54.928 61.6 54.928 61.21C54.928 60.81 54.838 60.465 54.658 60.175C54.478 59.875 54.228 59.645 53.908 59.485C53.588 59.315 53.223 59.23 52.813 59.23C52.403 59.23 52.038 59.315 51.718 59.485C51.398 59.645 51.143 59.875 50.953 60.175C50.773 60.465 50.683 60.81 50.683 61.21C50.683 61.6 50.773 61.945 50.953 62.245C51.143 62.545 51.398 62.78 51.718 62.95C52.038 63.11 52.403 63.19 52.813 63.19ZM64.8659 65.5V63.925L64.7159 63.58V60.76C64.7159 60.26 64.5609 59.87 64.2509 59.59C63.9509 59.31 63.4859 59.17 62.8559 59.17C62.4259 59.17 62.0009 59.24 61.5809 59.38C61.1709 59.51 60.8209 59.69 60.5309 59.92L59.6909 58.285C60.1309 57.975 60.6609 57.735 61.2809 57.565C61.9009 57.395 62.5309 57.31 63.1709 57.31C64.4009 57.31 65.3559 57.6 66.0359 58.18C66.7159 58.76 67.0559 59.665 67.0559 60.895V65.5H64.8659ZM62.4059 65.62C61.7759 65.62 61.2359 65.515 60.7859 65.305C60.3359 65.085 59.9909 64.79 59.7509 64.42C59.5109 64.05 59.3909 63.635 59.3909 63.175C59.3909 62.695 59.5059 62.275 59.7359 61.915C59.9759 61.555 60.3509 61.275 60.8609 61.075C61.3709 60.865 62.0359 60.76 62.8559 60.76H65.0009V62.125H63.1109C62.5609 62.125 62.1809 62.215 61.9709 62.395C61.7709 62.575 61.6709 62.8 61.6709 63.07C61.6709 63.37 61.7859 63.61 62.0159 63.79C62.2559 63.96 62.5809 64.045 62.9909 64.045C63.3809 64.045 63.7309 63.955 64.0409 63.775C64.3509 63.585 64.5759 63.31 64.7159 62.95L65.0759 64.03C64.9059 64.55 64.5959 64.945 64.1459 65.215C63.6959 65.485 63.1159 65.62 62.4059 65.62ZM80.0088 57.31C80.6488 57.31 81.2138 57.44 81.7038 57.7C82.2038 57.95 82.5938 58.34 82.8738 58.87C83.1638 59.39 83.3088 60.06 83.3088 60.88V65.5H80.9688V61.24C80.9688 60.59 80.8338 60.11 80.5638 59.8C80.2938 59.49 79.9138 59.335 79.4238 59.335C79.0838 59.335 78.7788 59.415 78.5088 59.575C78.2388 59.725 78.0288 59.955 77.8788 60.265C77.7288 60.575 77.6538 60.97 77.6538 61.45V65.5H75.3138V61.24C75.3138 60.59 75.1788 60.11 74.9088 59.8C74.6488 59.49 74.2738 59.335 73.7838 59.335C73.4438 59.335 73.1388 59.415 72.8688 59.575C72.5988 59.725 72.3888 59.955 72.2388 60.265C72.0888 60.575 72.0138 60.97 72.0138 61.45V65.5H69.6738V57.43H71.9088V59.635L71.4888 58.99C71.7688 58.44 72.1638 58.025 72.6738 57.745C73.1938 57.455 73.7838 57.31 74.4438 57.31C75.1838 57.31 75.8288 57.5 76.3788 57.88C76.9388 58.25 77.3088 58.82 77.4888 59.59L76.6638 59.365C76.9338 58.735 77.3638 58.235 77.9538 57.865C78.5538 57.495 79.2388 57.31 80.0088 57.31ZM89.9698 65.62C89.0498 65.62 88.2398 65.44 87.5398 65.08C86.8498 64.72 86.3148 64.23 85.9348 63.61C85.5548 62.98 85.3648 62.265 85.3648 61.465C85.3648 60.655 85.5498 59.94 85.9198 59.32C86.2998 58.69 86.8148 58.2 87.4648 57.85C88.1148 57.49 88.8498 57.31 89.6698 57.31C90.4598 57.31 91.1698 57.48 91.7998 57.82C92.4398 58.15 92.9448 58.63 93.3148 59.26C93.6848 59.88 93.8698 60.625 93.8698 61.495C93.8698 61.585 93.8648 61.69 93.8548 61.81C93.8448 61.92 93.8348 62.025 93.8248 62.125H87.2698V60.76H92.5948L91.6948 61.165C91.6948 60.745 91.6098 60.38 91.4398 60.07C91.2698 59.76 91.0348 59.52 90.7348 59.35C90.4348 59.17 90.0848 59.08 89.6848 59.08C89.2848 59.08 88.9298 59.17 88.6198 59.35C88.3198 59.52 88.0848 59.765 87.9148 60.085C87.7448 60.395 87.6598 60.765 87.6598 61.195V61.555C87.6598 61.995 87.7548 62.385 87.9448 62.725C88.1448 63.055 88.4198 63.31 88.7698 63.49C89.1298 63.66 89.5498 63.745 90.0298 63.745C90.4598 63.745 90.8348 63.68 91.1548 63.55C91.4848 63.42 91.7848 63.225 92.0548 62.965L93.2998 64.315C92.9298 64.735 92.4648 65.06 91.9048 65.29C91.3448 65.51 90.6998 65.62 89.9698 65.62ZM100.833 57.31C101.473 57.31 102.043 57.44 102.543 57.7C103.053 57.95 103.453 58.34 103.743 58.87C104.033 59.39 104.178 60.06 104.178 60.88V65.5H101.838V61.24C101.838 60.59 101.693 60.11 101.403 59.8C101.123 59.49 100.723 59.335 100.203 59.335C99.8327 59.335 99.4977 59.415 99.1977 59.575C98.9077 59.725 98.6777 59.96 98.5077 60.28C98.3477 60.6 98.2677 61.01 98.2677 61.51V65.5H95.9277V57.43H98.1627V59.665L97.7427 58.99C98.0327 58.45 98.4477 58.035 98.9877 57.745C99.5277 57.455 100.143 57.31 100.833 57.31ZM110.099 65.62C109.149 65.62 108.409 65.38 107.879 64.9C107.349 64.41 107.084 63.685 107.084 62.725V55.645H109.424V62.695C109.424 63.035 109.514 63.3 109.694 63.49C109.874 63.67 110.119 63.76 110.429 63.76C110.799 63.76 111.114 63.66 111.374 63.46L112.004 65.11C111.764 65.28 111.474 65.41 111.134 65.5C110.804 65.58 110.459 65.62 110.099 65.62ZM105.839 59.41V57.61H111.434V59.41H105.839ZM117.408 65.62C116.548 65.62 115.783 65.44 115.113 65.08C114.453 64.72 113.928 64.23 113.538 63.61C113.158 62.98 112.968 62.265 112.968 61.465C112.968 60.655 113.158 59.94 113.538 59.32C113.928 58.69 114.453 58.2 115.113 57.85C115.783 57.49 116.548 57.31 117.408 57.31C118.258 57.31 119.018 57.49 119.688 57.85C120.358 58.2 120.883 58.685 121.263 59.305C121.643 59.925 121.833 60.645 121.833 61.465C121.833 62.265 121.643 62.98 121.263 63.61C120.883 64.23 120.358 64.72 119.688 65.08C119.018 65.44 118.258 65.62 117.408 65.62ZM117.408 63.7C117.798 63.7 118.148 63.61 118.458 63.43C118.768 63.25 119.013 62.995 119.193 62.665C119.373 62.325 119.463 61.925 119.463 61.465C119.463 60.995 119.373 60.595 119.193 60.265C119.013 59.935 118.768 59.68 118.458 59.5C118.148 59.32 117.798 59.23 117.408 59.23C117.018 59.23 116.668 59.32 116.358 59.5C116.048 59.68 115.798 59.935 115.608 60.265C115.428 60.595 115.338 60.995 115.338 61.465C115.338 61.925 115.428 62.325 115.608 62.665C115.798 62.995 116.048 63.25 116.358 63.43C116.668 63.61 117.018 63.7 117.408 63.7ZM128.645 65.5V57.43H130.88V59.71L130.565 59.05C130.805 58.48 131.19 58.05 131.72 57.76C132.25 57.46 132.895 57.31 133.655 57.31V59.47C133.555 59.46 133.465 59.455 133.385 59.455C133.305 59.445 133.22 59.44 133.13 59.44C132.49 59.44 131.97 59.625 131.57 59.995C131.18 60.355 130.985 60.92 130.985 61.69V65.5H128.645ZM139.493 65.62C138.573 65.62 137.763 65.44 137.063 65.08C136.373 64.72 135.838 64.23 135.458 63.61C135.078 62.98 134.888 62.265 134.888 61.465C134.888 60.655 135.073 59.94 135.443 59.32C135.823 58.69 136.338 58.2 136.988 57.85C137.638 57.49 138.373 57.31 139.193 57.31C139.983 57.31 140.693 57.48 141.323 57.82C141.963 58.15 142.468 58.63 142.838 59.26C143.208 59.88 143.393 60.625 143.393 61.495C143.393 61.585 143.388 61.69 143.378 61.81C143.368 61.92 143.358 62.025 143.348 62.125H136.793V60.76H142.118L141.218 61.165C141.218 60.745 141.133 60.38 140.963 60.07C140.793 59.76 140.558 59.52 140.258 59.35C139.958 59.17 139.608 59.08 139.208 59.08C138.808 59.08 138.453 59.17 138.143 59.35C137.843 59.52 137.608 59.765 137.438 60.085C137.268 60.395 137.183 60.765 137.183 61.195V61.555C137.183 61.995 137.278 62.385 137.468 62.725C137.668 63.055 137.943 63.31 138.293 63.49C138.653 63.66 139.073 63.745 139.553 63.745C139.983 63.745 140.358 63.68 140.678 63.55C141.008 63.42 141.308 63.225 141.578 62.965L142.823 64.315C142.453 64.735 141.988 65.06 141.428 65.29C140.868 65.51 140.223 65.62 139.493 65.62ZM150.181 65.5V63.925L150.031 63.58V60.76C150.031 60.26 149.876 59.87 149.566 59.59C149.266 59.31 148.801 59.17 148.171 59.17C147.741 59.17 147.316 59.24 146.896 59.38C146.486 59.51 146.136 59.69 145.846 59.92L145.006 58.285C145.446 57.975 145.976 57.735 146.596 57.565C147.216 57.395 147.846 57.31 148.486 57.31C149.716 57.31 150.671 57.6 151.351 58.18C152.031 58.76 152.371 59.665 152.371 60.895V65.5H150.181ZM147.721 65.62C147.091 65.62 146.551 65.515 146.101 65.305C145.651 65.085 145.306 64.79 145.066 64.42C144.826 64.05 144.706 63.635 144.706 63.175C144.706 62.695 144.821 62.275 145.051 61.915C145.291 61.555 145.666 61.275 146.176 61.075C146.686 60.865 147.351 60.76 148.171 60.76H150.316V62.125H148.426C147.876 62.125 147.496 62.215 147.286 62.395C147.086 62.575 146.986 62.8 146.986 63.07C146.986 63.37 147.101 63.61 147.331 63.79C147.571 63.96 147.896 64.045 148.306 64.045C148.696 64.045 149.046 63.955 149.356 63.775C149.666 63.585 149.891 63.31 150.031 62.95L150.391 64.03C150.221 64.55 149.911 64.945 149.461 65.215C149.011 65.485 148.431 65.62 147.721 65.62ZM154.989 65.5V54.37H157.329V65.5H154.989ZM160.001 65.5V57.43H162.341V65.5H160.001ZM161.171 56.305C160.741 56.305 160.391 56.18 160.121 55.93C159.851 55.68 159.716 55.37 159.716 55C159.716 54.63 159.851 54.32 160.121 54.07C160.391 53.82 160.741 53.695 161.171 53.695C161.601 53.695 161.951 53.815 162.221 54.055C162.491 54.285 162.626 54.585 162.626 54.955C162.626 55.345 162.491 55.67 162.221 55.93C161.961 56.18 161.611 56.305 161.171 56.305ZM164.458 65.5V64.09L169.228 58.45L169.633 59.23H164.563V57.43H171.523V58.84L166.753 64.48L166.333 63.7H171.658V65.5H164.458ZM178.607 65.5V63.925L178.457 63.58V60.76C178.457 60.26 178.302 59.87 177.992 59.59C177.692 59.31 177.227 59.17 176.597 59.17C176.167 59.17 175.742 59.24 175.322 59.38C174.912 59.51 174.562 59.69 174.272 59.92L173.432 58.285C173.872 57.975 174.402 57.735 175.022 57.565C175.642 57.395 176.272 57.31 176.912 57.31C178.142 57.31 179.097 57.6 179.777 58.18C180.457 58.76 180.797 59.665 180.797 60.895V65.5H178.607ZM176.147 65.62C175.517 65.62 174.977 65.515 174.527 65.305C174.077 65.085 173.732 64.79 173.492 64.42C173.252 64.05 173.132 63.635 173.132 63.175C173.132 62.695 173.247 62.275 173.477 61.915C173.717 61.555 174.092 61.275 174.602 61.075C175.112 60.865 175.777 60.76 176.597 60.76H178.742V62.125H176.852C176.302 62.125 175.922 62.215 175.712 62.395C175.512 62.575 175.412 62.8 175.412 63.07C175.412 63.37 175.527 63.61 175.757 63.79C175.997 63.96 176.322 64.045 176.732 64.045C177.122 64.045 177.472 63.955 177.782 63.775C178.092 63.585 178.317 63.31 178.457 62.95L178.817 64.03C178.647 64.55 178.337 64.945 177.887 65.215C177.437 65.485 176.857 65.62 176.147 65.62ZM186.939 65.62C186.179 65.62 185.494 65.45 184.884 65.11C184.274 64.76 183.789 64.275 183.429 63.655C183.079 63.035 182.904 62.305 182.904 61.465C182.904 60.615 183.079 59.88 183.429 59.26C183.789 58.64 184.274 58.16 184.884 57.82C185.494 57.48 186.179 57.31 186.939 57.31C187.619 57.31 188.214 57.46 188.724 57.76C189.234 58.06 189.629 58.515 189.909 59.125C190.189 59.735 190.329 60.515 190.329 61.465C190.329 62.405 190.194 63.185 189.924 63.805C189.654 64.415 189.264 64.87 188.754 65.17C188.254 65.47 187.649 65.62 186.939 65.62ZM187.344 63.7C187.724 63.7 188.069 63.61 188.379 63.43C188.689 63.25 188.934 62.995 189.114 62.665C189.304 62.325 189.399 61.925 189.399 61.465C189.399 60.995 189.304 60.595 189.114 60.265C188.934 59.935 188.689 59.68 188.379 59.5C188.069 59.32 187.724 59.23 187.344 59.23C186.954 59.23 186.604 59.32 186.294 59.5C185.984 59.68 185.734 59.935 185.544 60.265C185.364 60.595 185.274 60.995 185.274 61.465C185.274 61.925 185.364 62.325 185.544 62.665C185.734 62.995 185.984 63.25 186.294 63.43C186.604 63.61 186.954 63.7 187.344 63.7ZM189.459 65.5V63.85L189.504 61.45L189.354 59.065V54.37H191.694V65.5H189.459ZM198.199 65.62C197.339 65.62 196.574 65.44 195.904 65.08C195.244 64.72 194.719 64.23 194.329 63.61C193.949 62.98 193.759 62.265 193.759 61.465C193.759 60.655 193.949 59.94 194.329 59.32C194.719 58.69 195.244 58.2 195.904 57.85C196.574 57.49 197.339 57.31 198.199 57.31C199.049 57.31 199.809 57.49 200.479 57.85C201.149 58.2 201.674 58.685 202.054 59.305C202.434 59.925 202.624 60.645 202.624 61.465C202.624 62.265 202.434 62.98 202.054 63.61C201.674 64.23 201.149 64.72 200.479 65.08C199.809 65.44 199.049 65.62 198.199 65.62ZM198.199 63.7C198.589 63.7 198.939 63.61 199.249 63.43C199.559 63.25 199.804 62.995 199.984 62.665C200.164 62.325 200.254 61.925 200.254 61.465C200.254 60.995 200.164 60.595 199.984 60.265C199.804 59.935 199.559 59.68 199.249 59.5C198.939 59.32 198.589 59.23 198.199 59.23C197.809 59.23 197.459 59.32 197.149 59.5C196.839 59.68 196.589 59.935 196.399 60.265C196.219 60.595 196.129 60.995 196.129 61.465C196.129 61.925 196.219 62.325 196.399 62.665C196.589 62.995 196.839 63.25 197.149 63.43C197.459 63.61 197.809 63.7 198.199 63.7ZM213.336 65.62C212.466 65.62 211.691 65.445 211.011 65.095C210.331 64.735 209.796 64.24 209.406 63.61C209.026 62.98 208.836 62.265 208.836 61.465C208.836 60.655 209.026 59.94 209.406 59.32C209.796 58.69 210.331 58.2 211.011 57.85C211.691 57.49 212.466 57.31 213.336 57.31C214.186 57.31 214.926 57.49 215.556 57.85C216.186 58.2 216.651 58.705 216.951 59.365L215.136 60.34C214.926 59.96 214.661 59.68 214.341 59.5C214.031 59.32 213.691 59.23 213.321 59.23C212.921 59.23 212.561 59.32 212.241 59.5C211.921 59.68 211.666 59.935 211.476 60.265C211.296 60.595 211.206 60.995 211.206 61.465C211.206 61.935 211.296 62.335 211.476 62.665C211.666 62.995 211.921 63.25 212.241 63.43C212.561 63.61 212.921 63.7 213.321 63.7C213.691 63.7 214.031 63.615 214.341 63.445C214.661 63.265 214.926 62.98 215.136 62.59L216.951 63.58C216.651 64.23 216.186 64.735 215.556 65.095C214.926 65.445 214.186 65.62 213.336 65.62ZM222.536 65.62C221.676 65.62 220.911 65.44 220.241 65.08C219.581 64.72 219.056 64.23 218.666 63.61C218.286 62.98 218.096 62.265 218.096 61.465C218.096 60.655 218.286 59.94 218.666 59.32C219.056 58.69 219.581 58.2 220.241 57.85C220.911 57.49 221.676 57.31 222.536 57.31C223.386 57.31 224.146 57.49 224.816 57.85C225.486 58.2 226.011 58.685 226.391 59.305C226.771 59.925 226.961 60.645 226.961 61.465C226.961 62.265 226.771 62.98 226.391 63.61C226.011 64.23 225.486 64.72 224.816 65.08C224.146 65.44 223.386 65.62 222.536 65.62ZM222.536 63.7C222.926 63.7 223.276 63.61 223.586 63.43C223.896 63.25 224.141 62.995 224.321 62.665C224.501 62.325 224.591 61.925 224.591 61.465C224.591 60.995 224.501 60.595 224.321 60.265C224.141 59.935 223.896 59.68 223.586 59.5C223.276 59.32 222.926 59.23 222.536 59.23C222.146 59.23 221.796 59.32 221.486 59.5C221.176 59.68 220.926 59.935 220.736 60.265C220.556 60.595 220.466 60.995 220.466 61.465C220.466 61.925 220.556 62.325 220.736 62.665C220.926 62.995 221.176 63.25 221.486 63.43C221.796 63.61 222.146 63.7 222.536 63.7ZM239.36 57.31C240 57.31 240.565 57.44 241.055 57.7C241.555 57.95 241.945 58.34 242.225 58.87C242.515 59.39 242.66 60.06 242.66 60.88V65.5H240.32V61.24C240.32 60.59 240.185 60.11 239.915 59.8C239.645 59.49 239.265 59.335 238.775 59.335C238.435 59.335 238.13 59.415 237.86 59.575C237.59 59.725 237.38 59.955 237.23 60.265C237.08 60.575 237.005 60.97 237.005 61.45V65.5H234.665V61.24C234.665 60.59 234.53 60.11 234.26 59.8C234 59.49 233.625 59.335 233.135 59.335C232.795 59.335 232.49 59.415 232.22 59.575C231.95 59.725 231.74 59.955 231.59 60.265C231.44 60.575 231.365 60.97 231.365 61.45V65.5H229.025V57.43H231.26V59.635L230.84 58.99C231.12 58.44 231.515 58.025 232.025 57.745C232.545 57.455 233.135 57.31 233.795 57.31C234.535 57.31 235.18 57.5 235.73 57.88C236.29 58.25 236.66 58.82 236.84 59.59L236.015 59.365C236.285 58.735 236.715 58.235 237.305 57.865C237.905 57.495 238.59 57.31 239.36 57.31ZM252.721 65.62C252.031 65.62 251.366 65.54 250.726 65.38C250.096 65.21 249.596 65 249.226 64.75L250.006 63.07C250.376 63.3 250.811 63.49 251.311 63.64C251.821 63.78 252.321 63.85 252.811 63.85C253.351 63.85 253.731 63.785 253.951 63.655C254.181 63.525 254.296 63.345 254.296 63.115C254.296 62.925 254.206 62.785 254.026 62.695C253.856 62.595 253.626 62.52 253.336 62.47C253.046 62.42 252.726 62.37 252.376 62.32C252.036 62.27 251.691 62.205 251.341 62.125C250.991 62.035 250.671 61.905 250.381 61.735C250.091 61.565 249.856 61.335 249.676 61.045C249.506 60.755 249.421 60.38 249.421 59.92C249.421 59.41 249.566 58.96 249.856 58.57C250.156 58.18 250.586 57.875 251.146 57.655C251.706 57.425 252.376 57.31 253.156 57.31C253.706 57.31 254.266 57.37 254.836 57.49C255.406 57.61 255.881 57.785 256.261 58.015L255.481 59.68C255.091 59.45 254.696 59.295 254.296 59.215C253.906 59.125 253.526 59.08 253.156 59.08C252.636 59.08 252.256 59.15 252.016 59.29C251.776 59.43 251.656 59.61 251.656 59.83C251.656 60.03 251.741 60.18 251.911 60.28C252.091 60.38 252.326 60.46 252.616 60.52C252.906 60.58 253.221 60.635 253.561 60.685C253.911 60.725 254.261 60.79 254.611 60.88C254.961 60.97 255.276 61.1 255.556 61.27C255.846 61.43 256.081 61.655 256.261 61.945C256.441 62.225 256.531 62.595 256.531 63.055C256.531 63.555 256.381 64 256.081 64.39C255.781 64.77 255.346 65.07 254.776 65.29C254.216 65.51 253.531 65.62 252.721 65.62ZM261.88 65.62C261.21 65.62 260.61 65.49 260.08 65.23C259.56 64.97 259.155 64.575 258.865 64.045C258.575 63.505 258.43 62.82 258.43 61.99V57.43H260.77V61.645C260.77 62.315 260.91 62.81 261.19 63.13C261.48 63.44 261.885 63.595 262.405 63.595C262.765 63.595 263.085 63.52 263.365 63.37C263.645 63.21 263.865 62.97 264.025 62.65C264.185 62.32 264.265 61.91 264.265 61.42V57.43H266.605V65.5H264.385V63.28L264.79 63.925C264.52 64.485 264.12 64.91 263.59 65.2C263.07 65.48 262.5 65.62 261.88 65.62ZM273.172 65.62C272.302 65.62 271.527 65.445 270.847 65.095C270.167 64.735 269.632 64.24 269.242 63.61C268.862 62.98 268.672 62.265 268.672 61.465C268.672 60.655 268.862 59.94 269.242 59.32C269.632 58.69 270.167 58.2 270.847 57.85C271.527 57.49 272.302 57.31 273.172 57.31C274.022 57.31 274.762 57.49 275.392 57.85C276.022 58.2 276.487 58.705 276.787 59.365L274.972 60.34C274.762 59.96 274.497 59.68 274.177 59.5C273.867 59.32 273.527 59.23 273.157 59.23C272.757 59.23 272.397 59.32 272.077 59.5C271.757 59.68 271.502 59.935 271.312 60.265C271.132 60.595 271.042 60.995 271.042 61.465C271.042 61.935 271.132 62.335 271.312 62.665C271.502 62.995 271.757 63.25 272.077 63.43C272.397 63.61 272.757 63.7 273.157 63.7C273.527 63.7 273.867 63.615 274.177 63.445C274.497 63.265 274.762 62.98 274.972 62.59L276.787 63.58C276.487 64.23 276.022 64.735 275.392 65.095C274.762 65.445 274.022 65.62 273.172 65.62ZM282.537 65.62C281.617 65.62 280.807 65.44 280.107 65.08C279.417 64.72 278.882 64.23 278.502 63.61C278.122 62.98 277.932 62.265 277.932 61.465C277.932 60.655 278.117 59.94 278.487 59.32C278.867 58.69 279.382 58.2 280.032 57.85C280.682 57.49 281.417 57.31 282.237 57.31C283.027 57.31 283.737 57.48 284.367 57.82C285.007 58.15 285.512 58.63 285.882 59.26C286.252 59.88 286.437 60.625 286.437 61.495C286.437 61.585 286.432 61.69 286.422 61.81C286.412 61.92 286.402 62.025 286.392 62.125H279.837V60.76H285.162L284.262 61.165C284.262 60.745 284.177 60.38 284.007 60.07C283.837 59.76 283.602 59.52 283.302 59.35C283.002 59.17 282.652 59.08 282.252 59.08C281.852 59.08 281.497 59.17 281.187 59.35C280.887 59.52 280.652 59.765 280.482 60.085C280.312 60.395 280.227 60.765 280.227 61.195V61.555C280.227 61.995 280.322 62.385 280.512 62.725C280.712 63.055 280.987 63.31 281.337 63.49C281.697 63.66 282.117 63.745 282.597 63.745C283.027 63.745 283.402 63.68 283.722 63.55C284.052 63.42 284.352 63.225 284.622 62.965L285.867 64.315C285.497 64.735 285.032 65.06 284.472 65.29C283.912 65.51 283.267 65.62 282.537 65.62ZM291.21 65.62C290.52 65.62 289.855 65.54 289.215 65.38C288.585 65.21 288.085 65 287.715 64.75L288.495 63.07C288.865 63.3 289.3 63.49 289.8 63.64C290.31 63.78 290.81 63.85 291.3 63.85C291.84 63.85 292.22 63.785 292.44 63.655C292.67 63.525 292.785 63.345 292.785 63.115C292.785 62.925 292.695 62.785 292.515 62.695C292.345 62.595 292.115 62.52 291.825 62.47C291.535 62.42 291.215 62.37 290.865 62.32C290.525 62.27 290.18 62.205 289.83 62.125C289.48 62.035 289.16 61.905 288.87 61.735C288.58 61.565 288.345 61.335 288.165 61.045C287.995 60.755 287.91 60.38 287.91 59.92C287.91 59.41 288.055 58.96 288.345 58.57C288.645 58.18 289.075 57.875 289.635 57.655C290.195 57.425 290.865 57.31 291.645 57.31C292.195 57.31 292.755 57.37 293.325 57.49C293.895 57.61 294.37 57.785 294.75 58.015L293.97 59.68C293.58 59.45 293.185 59.295 292.785 59.215C292.395 59.125 292.015 59.08 291.645 59.08C291.125 59.08 290.745 59.15 290.505 59.29C290.265 59.43 290.145 59.61 290.145 59.83C290.145 60.03 290.23 60.18 290.4 60.28C290.58 60.38 290.815 60.46 291.105 60.52C291.395 60.58 291.71 60.635 292.05 60.685C292.4 60.725 292.75 60.79 293.1 60.88C293.45 60.97 293.765 61.1 294.045 61.27C294.335 61.43 294.57 61.655 294.75 61.945C294.93 62.225 295.02 62.595 295.02 63.055C295.02 63.555 294.87 64 294.57 64.39C294.27 64.77 293.835 65.07 293.265 65.29C292.705 65.51 292.02 65.62 291.21 65.62ZM299.679 65.62C298.989 65.62 298.324 65.54 297.684 65.38C297.054 65.21 296.554 65 296.184 64.75L296.964 63.07C297.334 63.3 297.769 63.49 298.269 63.64C298.779 63.78 299.279 63.85 299.769 63.85C300.309 63.85 300.689 63.785 300.909 63.655C301.139 63.525 301.254 63.345 301.254 63.115C301.254 62.925 301.164 62.785 300.984 62.695C300.814 62.595 300.584 62.52 300.294 62.47C300.004 62.42 299.684 62.37 299.334 62.32C298.994 62.27 298.649 62.205 298.299 62.125C297.949 62.035 297.629 61.905 297.339 61.735C297.049 61.565 296.814 61.335 296.634 61.045C296.464 60.755 296.379 60.38 296.379 59.92C296.379 59.41 296.524 58.96 296.814 58.57C297.114 58.18 297.544 57.875 298.104 57.655C298.664 57.425 299.334 57.31 300.114 57.31C300.664 57.31 301.224 57.37 301.794 57.49C302.364 57.61 302.839 57.785 303.219 58.015L302.439 59.68C302.049 59.45 301.654 59.295 301.254 59.215C300.864 59.125 300.484 59.08 300.114 59.08C299.594 59.08 299.214 59.15 298.974 59.29C298.734 59.43 298.614 59.61 298.614 59.83C298.614 60.03 298.699 60.18 298.869 60.28C299.049 60.38 299.284 60.46 299.574 60.52C299.864 60.58 300.179 60.635 300.519 60.685C300.869 60.725 301.219 60.79 301.569 60.88C301.919 60.97 302.234 61.1 302.514 61.27C302.804 61.43 303.039 61.655 303.219 61.945C303.399 62.225 303.489 62.595 303.489 63.055C303.489 63.555 303.339 64 303.039 64.39C302.739 64.77 302.304 65.07 301.734 65.29C301.174 65.51 300.489 65.62 299.679 65.62ZM309.273 65.62C308.413 65.62 307.648 65.44 306.978 65.08C306.318 64.72 305.793 64.23 305.403 63.61C305.023 62.98 304.833 62.265 304.833 61.465C304.833 60.655 305.023 59.94 305.403 59.32C305.793 58.69 306.318 58.2 306.978 57.85C307.648 57.49 308.413 57.31 309.273 57.31C310.123 57.31 310.883 57.49 311.553 57.85C312.223 58.2 312.748 58.685 313.128 59.305C313.508 59.925 313.698 60.645 313.698 61.465C313.698 62.265 313.508 62.98 313.128 63.61C312.748 64.23 312.223 64.72 311.553 65.08C310.883 65.44 310.123 65.62 309.273 65.62ZM309.273 63.7C309.663 63.7 310.013 63.61 310.323 63.43C310.633 63.25 310.878 62.995 311.058 62.665C311.238 62.325 311.328 61.925 311.328 61.465C311.328 60.995 311.238 60.595 311.058 60.265C310.878 59.935 310.633 59.68 310.323 59.5C310.013 59.32 309.663 59.23 309.273 59.23C308.883 59.23 308.533 59.32 308.223 59.5C307.913 59.68 307.663 59.935 307.473 60.265C307.293 60.595 307.203 60.995 307.203 61.465C307.203 61.925 307.293 62.325 307.473 62.665C307.663 62.995 307.913 63.25 308.223 63.43C308.533 63.61 308.883 63.7 309.273 63.7ZM315.927 61.855L315.462 55H318.252L317.787 61.855H315.927ZM316.857 65.62C316.437 65.62 316.092 65.485 315.822 65.215C315.552 64.945 315.417 64.625 315.417 64.255C315.417 63.875 315.552 63.56 315.822 63.31C316.092 63.05 316.437 62.92 316.857 62.92C317.287 62.92 317.632 63.05 317.892 63.31C318.162 63.56 318.297 63.875 318.297 64.255C318.297 64.625 318.162 64.945 317.892 65.215C317.632 65.485 317.287 65.62 316.857 65.62Z" fill="white"/>
<rect y="46" width="361" height="1" fill="#D9D9D9" fill-opacity="0.5"/>
</svg>
