<svg width="512" height="66" viewBox="0 0 512 66" fill="none" xmlns="http://www.w3.org/2000/svg">
<path d="M285 33C285 36.8083 284.25 40.5794 282.793 44.0978C281.335 47.6163 279.199 50.8132 276.506 53.5061C273.813 56.199 270.616 58.3351 267.098 59.7925C263.579 61.2499 259.808 62 256 62C252.192 62 248.421 61.2499 244.902 59.7925C241.384 58.3351 238.187 56.199 235.494 53.5061C232.801 50.8132 230.665 47.6163 229.207 44.0978C227.75 40.5794 227 36.8083 227 33C227 29.1917 227.75 25.4206 229.207 21.9022C230.665 18.3837 232.801 15.1868 235.494 12.4939C238.187 9.801 241.384 7.66487 244.902 6.20749C248.421 4.7501 252.192 4 256 4C259.808 4 263.579 4.75011 267.098 6.2075C270.616 7.66489 273.813 9.80101 276.506 12.4939C279.199 15.1868 281.335 18.3838 282.793 21.9022C284.25 25.4206 285 29.1917 285 33L285 33Z" stroke="url(#paint0_angular_8262_203322)" stroke-width="8" stroke-linecap="round" stroke-linejoin="round" stroke-dasharray="0.1 8"/>
<defs>
<radialGradient id="paint0_angular_8262_203322" cx="0" cy="0" r="1" gradientUnits="userSpaceOnUse" gradientTransform="translate(256 33) rotate(169.077) scale(29.0258)">
<stop stop-color="#A644CB" stop-opacity="0"/>
<stop offset="1" stop-color="#A644CB"/>
</radialGradient>
</defs>
</svg>
