<svg width="52" height="28" viewBox="0 0 52 28" fill="none" xmlns="http://www.w3.org/2000/svg">
<path d="M13.8587 18.5994C13.5239 18.6006 13.1922 18.5354 12.8827 18.4077C12.5733 18.28 12.2922 18.0922 12.0557 17.8552L9.45142 15.2492C9.3593 15.1612 9.23676 15.112 9.10931 15.112C8.98186 15.112 8.85932 15.1612 8.7672 15.2492L6.1541 17.8623C5.91779 18.0997 5.63678 18.2878 5.32733 18.4159C5.01787 18.5441 4.68609 18.6096 4.35117 18.6087H3.84131L7.14137 21.9088C7.63631 22.4027 8.30697 22.68 9.00618 22.68C9.70539 22.68 10.3761 22.4027 10.871 21.9088L14.1777 18.6016L13.8587 18.5994Z" fill="#59AC93"/>
<path d="M4.35172 9.38995C4.68665 9.38906 5.01843 9.45456 5.32789 9.58267C5.63736 9.71078 5.91836 9.89895 6.15465 10.1363L8.76775 12.75C8.85858 12.8405 8.9816 12.8914 9.10986 12.8914C9.23811 12.8914 9.36114 12.8405 9.45197 12.75L12.0557 10.1462C12.2918 9.90856 12.5728 9.72015 12.8823 9.59193C13.1918 9.46371 13.5236 9.39824 13.8587 9.3993H14.1722L10.8655 6.09264C10.6206 5.84769 10.3299 5.65338 10.0099 5.52081C9.68998 5.38824 9.34703 5.32001 9.00068 5.32001C8.65434 5.32001 8.31138 5.38824 7.99141 5.52081C7.67145 5.65338 7.38073 5.84769 7.13587 6.09264L3.84131 9.38995H4.35172Z" fill="#59AC93"/>
<path d="M16.9072 12.1351L14.909 10.1369C14.8639 10.1553 14.8158 10.165 14.7671 10.1655H13.8585C13.3857 10.1667 12.9324 10.3545 12.5973 10.688L9.99356 13.2901C9.75907 13.5242 9.44129 13.6556 9.10997 13.6556C8.77865 13.6556 8.46087 13.5242 8.22638 13.2901L5.61273 10.6781C5.2777 10.3444 4.82445 10.1564 4.35155 10.1551H3.23613C3.19016 10.154 3.14474 10.1449 3.10193 10.1281L1.09109 12.1351C0.597201 12.63 0.319824 13.3007 0.319824 13.9999C0.319824 14.6991 0.597201 15.3698 1.09109 15.8647L3.09753 17.8712C3.14024 17.8541 3.18573 17.8449 3.23173 17.8442H4.35155C4.82444 17.8428 5.27767 17.6549 5.61273 17.3212L8.22583 14.7081C8.69829 14.2361 9.52165 14.2361 9.99356 14.7081L12.5973 17.3113C12.9324 17.6448 13.3857 17.8326 13.8585 17.8338H14.7671C14.8158 17.8341 14.864 17.8438 14.909 17.8624L16.9072 15.8642C17.1521 15.6193 17.3465 15.3286 17.479 15.0086C17.6116 14.6887 17.6798 14.3457 17.6798 13.9994C17.6798 13.653 17.6116 13.3101 17.479 12.9901C17.3465 12.6701 17.1521 12.3794 16.9072 12.1346" fill="#59AC93"/>
<g clip-path="url(#clip0_250_1318)">
<path d="M21.2082 22.53C21.1152 22.53 21.04 22.4546 21.04 22.3613V11.8941C21.04 9.8783 22.6753 8.23859 24.6856 8.23859L27.7678 8.24308C29.772 8.24702 31.4017 9.88504 31.4017 11.8941V14.1218C31.4017 16.1375 29.7664 17.7778 27.7561 17.7778H23.3996C23.3066 17.7778 23.2314 17.7025 23.2314 17.6092C23.2314 17.5158 23.3066 17.4405 23.3996 17.4405H27.7555C29.5803 17.4405 31.0647 15.9515 31.0647 14.1218V11.8941C31.0647 10.0705 29.5859 8.58373 27.7673 8.58036L24.6856 8.57586C22.8614 8.57586 21.3764 10.0644 21.3764 11.8941V22.3619C21.3764 22.4552 21.3013 22.5305 21.2082 22.5305V22.53Z" fill="#59AC93"/>
<path d="M34.8588 17.825C34.7657 17.825 34.6906 17.7496 34.6906 17.6563V9.83777C34.6906 9.14187 34.1255 8.57525 33.4315 8.57525H32.0945C32.0014 8.57525 31.9263 8.49992 31.9263 8.40661C31.9263 8.3133 32.0014 8.23798 32.0945 8.23798H33.4315C34.3111 8.23798 35.027 8.95581 35.027 9.83777V17.6563C35.027 17.7496 34.9518 17.825 34.8588 17.825Z" fill="#59AC93"/>
<path d="M34.5717 7.19529L33.9657 6.58707C33.8155 6.43642 33.8155 6.19246 33.9657 6.04125L34.5717 5.4336C34.7225 5.28239 34.9664 5.28239 35.1172 5.4336L35.7226 6.04125C35.8729 6.1919 35.8729 6.43586 35.7226 6.58707L35.1144 7.19529C34.9641 7.34594 34.7197 7.34594 34.5695 7.19529" fill="#59AC93"/>
<path d="M44.3979 12.7339C44.0912 12.7339 43.7846 12.6169 43.5514 12.3825L40.4501 9.27289C39.9966 8.81813 39.3934 8.56799 38.7515 8.56799H37.4245C37.3315 8.56799 37.2563 8.49266 37.2563 8.39935C37.2563 8.30604 37.3315 8.23071 37.4245 8.23071H38.7515C39.4825 8.23071 40.1704 8.51627 40.6878 9.03455L43.789 12.1442C44.1243 12.4804 44.6698 12.4809 45.005 12.1448C45.0056 12.1448 45.0061 12.1436 45.0067 12.1431L48.0956 9.04635C48.6125 8.52808 49.2998 8.24252 50.0308 8.24252H51.1105C51.2036 8.24252 51.2787 8.31784 51.2787 8.41115C51.2787 8.50447 51.2036 8.57979 51.1105 8.57979H50.0314C49.39 8.57979 48.7874 8.82993 48.3338 9.28469L45.2438 12.3825C45.2438 12.3825 45.2427 12.3837 45.2421 12.3842C45.0089 12.6169 44.7034 12.7339 44.3973 12.7339H44.3979Z" fill="#59AC93"/>
<path d="M38.7519 17.7564H37.4255C37.3324 17.7564 37.2573 17.6811 37.2573 17.5878C37.2573 17.4945 37.3324 17.4192 37.4255 17.4192H38.7519C39.3938 17.4192 39.997 17.169 40.4505 16.7143L43.5518 13.6046C44.0182 13.1369 44.7778 13.1369 45.2442 13.6046L48.3343 16.703C48.7878 17.1578 49.391 17.4079 50.0323 17.4079H51.1109C51.204 17.4079 51.2791 17.4832 51.2791 17.5766C51.2791 17.6699 51.204 17.7452 51.1109 17.7452H50.0323C49.3013 17.7452 48.6134 17.4596 48.096 16.9414L45.006 13.8429C44.6707 13.5068 44.1247 13.5068 43.7889 13.8429L40.6876 16.9526C40.1702 17.4709 39.4824 17.7564 38.7508 17.7564H38.7519Z" fill="#59AC93"/>
</g>
<defs>
<clipPath id="clip0_250_1318">
<rect width="30.24" height="17.36" fill="white" transform="translate(21.04 5.32001)"/>
</clipPath>
</defs>
</svg>
