<svg width="23" height="25" viewBox="0 0 23 25" fill="none" xmlns="http://www.w3.org/2000/svg">
<path d="M15.0758 21.4278L15.0761 18.0802C15.0762 16.231 13.7225 14.7319 12.0525 14.7319H5.28175C3.612 14.7319 2.25834 16.2306 2.25815 18.0795L2.25781 21.4278M20.3198 21.428L20.3201 18.0803C20.3202 16.2312 18.9665 14.7321 17.2965 14.7321M14.4934 4.22969C15.236 4.83973 15.7172 5.81771 15.7172 6.92013C15.7172 8.02256 15.236 9.00053 14.4934 9.61057M11.7535 6.91995C11.7535 8.76899 10.3998 10.2679 8.72988 10.2679C7.05999 10.2679 5.70628 8.76899 5.70628 6.91995C5.70628 5.07091 7.05999 3.57198 8.72988 3.57198C10.3998 3.57198 11.7535 5.07091 11.7535 6.91995Z" stroke="#757575" stroke-width="2" stroke-linecap="round" stroke-linejoin="round"/>
</svg>
